<svg data-v-fde0c5aa="" xmlns="http://www.w3.org/2000/svg" viewBox="0 0 300 300" class="font"><!----><defs data-v-fde0c5aa=""><linearGradient data-v-fde0c5aa="" gradientTransform="rotate(25)" id="b64a03ea-e393-4ec0-8ed9-203ffb553d45" x1="0%" y1="0%" x2="100%" y2="0%"><stop data-v-fde0c5aa="" offset="0%" stop-color="#20484F" stop-opacity="1"></stop><stop data-v-fde0c5aa="" offset="100%" stop-color="#4E9BAB" stop-opacity="1"></stop></linearGradient></defs><rect data-v-fde0c5aa="" fill="url(#b64a03ea-e393-4ec0-8ed9-203ffb553d45)" x="0" y="0" width="300px" height="300px" class="logo-background-square"></rect><defs data-v-fde0c5aa=""><!----></defs><g data-v-fde0c5aa="" id="64685815-e004-4ea7-add7-b25e48cb6a45" fill="#ffffff" transform="matrix(2.4943309363022577,0,0,2.4943309363022577,39.401360551499664,130.60657613767717)"><path d="M4.31 12.66L4.31 12.66L3.51 12.64L3.51 12.64Q3.35 12.64 3.18 12.64L3.18 12.64L0.63 12.77L0.63 12.77Q0.42 12.77 0.42 12.63L0.42 12.63L0.42 12.63Q0.42 12.59 0.46 12.43L0.46 12.43L0.46 12.43Q0.60 12.11 0.67 10.39L0.67 10.39L0.67 10.39Q0.73 8.67 0.73 7.25L0.73 7.25L0.73 7.25Q0.73 5.82 0.67 4.94L0.67 4.94L0.67 4.94Q0.59 3.61 0.39 3.35L0.39 3.35L0.39 3.35Q0.24 3.15 0.24 3.09L0.24 3.09L0.24 3.09Q0.24 2.87 0.99 2.70L0.99 2.70L0.99 2.70Q1.75 2.53 2.08 2.53L2.08 2.53L2.08 2.53Q2.41 2.53 2.49 2.57L2.49 2.57L2.49 2.57Q2.58 2.60 2.58 2.72L2.58 2.72L2.58 2.72Q2.58 2.83 2.52 3.43L2.52 3.43L2.52 3.43Q2.38 5.21 2.38 7.57L2.38 7.57L2.38 7.57Q2.38 9.93 2.49 11.34L2.49 11.34L2.49 11.34Q2.49 11.49 2.76 11.61L2.76 11.61L2.76 11.61Q3.02 11.72 3.42 11.72L3.42 11.72L3.42 11.72Q4.79 11.72 4.79 9.60L4.79 9.60L4.79 9.60Q4.79 9.02 4.73 8.88L4.73 8.88L4.73 8.88Q4.66 8.74 4.66 8.69L4.66 8.69L4.66 8.69Q4.66 8.55 4.86 8.55L4.86 8.55L4.86 8.55Q5.01 8.55 5.27 8.71L5.27 8.71L5.27 8.71Q5.53 8.86 5.70 9.09L5.70 9.09L5.70 9.09Q5.87 9.32 6.01 9.82L6.01 9.82L6.01 9.82Q6.15 10.32 6.15 10.99L6.15 10.99L6.15 10.99Q6.15 12.66 5.74 12.66L5.74 12.66L5.74 12.66Q5.03 12.66 4.31 12.66ZM8.04 7.39L8.04 7.39L8.04 7.39Q7.67 7.41 7.51 7.41L7.51 7.41L7.51 7.41Q7.35 7.42 7.35 7.34L7.35 7.34L7.35 7.34Q7.35 7.25 7.43 7.17L7.43 7.17L7.43 7.17Q8.33 6.34 10.46 6.34L10.46 6.34L10.46 6.34Q11.19 6.34 11.61 6.47L11.61 6.47L11.75 6.51L11.75 6.51Q11.91 6.58 11.91 6.66L11.91 6.66L11.91 6.66Q11.91 6.73 11.82 6.78L11.82 6.78L11.82 6.78Q11.44 6.89 11.09 7.13L11.09 7.13L11.09 7.13Q10.74 7.38 10.74 7.48L10.74 7.48L10.82 7.57L10.82 7.57Q11.27 7.83 11.52 8.37L11.52 8.37L11.52 8.37Q11.76 8.92 11.79 9.34L11.79 9.34L11.82 9.77L11.82 9.77Q11.82 11.16 11.05 12.05L11.05 12.05L11.05 12.05Q10.28 12.95 8.95 12.95L8.95 12.95L8.95 12.95Q8.27 12.95 7.78 12.71L7.78 12.71L7.78 12.71Q7.29 12.47 7.06 12.17L7.06 12.17L7.06 12.17Q6.83 11.87 6.69 11.49L6.69 11.49L6.69 11.49Q6.52 10.98 6.52 10.42L6.52 10.42L6.52 10.42Q6.52 9.87 6.71 9.31L6.71 9.31L6.71 9.31Q6.90 8.75 7.15 8.48L7.15 8.48L7.15 8.48Q7.39 8.22 7.70 8.05L7.70 8.05L7.70 8.05Q8.09 7.84 8.33 7.84L8.33 7.84L8.33 7.84Q8.57 7.84 8.57 7.94L8.57 7.94L8.48 8.08L8.48 8.08Q8.18 8.44 8.04 9.03L8.04 9.03L8.04 9.03Q7.91 9.62 7.91 10.07L7.91 10.07L7.91 10.07Q7.91 10.53 8.02 10.98L8.02 10.98L8.02 10.98Q8.13 11.42 8.27 11.64L8.27 11.64L8.27 11.64Q8.41 11.86 8.60 11.97L8.60 11.97L8.60 11.97Q8.86 12.14 9.16 12.14L9.16 12.14L9.16 12.14Q9.45 12.14 9.73 11.91L9.73 11.91L9.73 11.91Q10.01 11.68 10.14 11.30L10.14 11.30L10.14 11.30Q10.39 10.60 10.39 9.86L10.39 9.86L10.39 9.86Q10.39 8.68 9.79 8.04L9.79 8.04L9.79 8.04Q9.20 7.39 8.04 7.39ZM17.12 11.06L17.12 11.06L17.12 11.06Q17.12 11.86 16.48 12.38L16.48 12.38L16.48 12.38Q15.85 12.91 14.97 12.91L14.97 12.91L14.97 12.91Q13.68 12.91 13.08 12.13L13.08 12.13L13.08 12.13Q12.47 11.35 12.47 10.02L12.47 10.02L12.47 10.02Q12.47 8.61 13.10 7.52L13.10 7.52L13.10 7.52Q13.41 6.96 13.99 6.64L13.99 6.64L13.99 6.64Q14.56 6.31 15.33 6.31L15.33 6.31L15.33 6.31Q16.49 6.31 16.97 7.10L16.97 7.10L16.97 7.10Q17.16 7.42 17.16 7.85L17.16 7.85L17.16 7.85Q17.16 8.53 16.60 8.86L16.60 8.86L16.60 8.86Q16.38 8.99 16.19 8.99L16.19 8.99L16.19 8.99Q16.00 8.99 15.88 8.97L15.88 8.97L15.88 8.97Q15.76 8.95 15.57 8.78L15.57 8.78L15.57 8.78Q15.37 8.61 15.37 8.32L15.37 8.32L15.37 8.32Q15.39 8.16 15.61 8.06L15.61 8.06L15.61 8.06Q15.82 7.94 15.82 7.62L15.82 7.62L15.82 7.62Q15.82 7.07 15.15 7.07L15.15 7.07L15.15 7.07Q14.98 7.07 14.75 7.22L14.75 7.22L14.75 7.22Q14.52 7.36 14.36 7.59L14.36 7.59L14.36 7.59Q14.21 7.83 14.08 8.32L14.08 8.32L14.08 8.32Q13.94 8.82 13.94 9.28L13.94 9.28L13.94 9.28Q13.94 9.73 13.98 9.96L13.98 9.96L13.98 9.96Q14.01 10.19 14.13 10.59L14.13 10.59L14.13 10.59Q14.25 10.99 14.58 11.24L14.58 11.24L14.58 11.24Q14.91 11.49 15.40 11.49L15.40 11.49L15.40 11.49Q15.99 11.49 16.44 11.00L16.44 11.00L16.44 11.00Q16.62 10.81 16.73 10.53L16.73 10.53L16.73 10.53Q16.79 10.42 16.87 10.42L16.87 10.42L16.87 10.42Q17.00 10.42 17.06 10.65L17.06 10.65L17.06 10.65Q17.12 10.88 17.12 11.06ZM19.53 5.15L19.53 5.15L19.52 6.51L19.52 6.51Q19.52 6.59 19.57 6.59L19.57 6.59L19.57 6.59Q19.63 6.59 19.68 6.55L19.68 6.55L19.68 6.55Q20.03 6.31 20.79 6.31L20.79 6.31L20.79 6.31Q22.06 6.31 22.55 7.18L22.55 7.18L22.55 7.18Q22.74 7.50 22.74 8.04L22.74 8.04L22.74 8.04Q22.74 8.57 22.67 9.51L22.67 9.51L22.67 9.51Q22.61 10.44 22.61 10.84L22.61 10.84L22.61 10.84Q22.61 12.21 23.00 12.66L23.00 12.66L23.00 12.66Q23.07 12.73 23.07 12.80L23.07 12.80L23.07 12.80Q23.07 12.94 22.47 12.94L22.47 12.94L22.47 12.94Q20.85 12.94 20.85 11.42L20.85 11.42L20.85 11.42Q20.85 10.84 21.13 9.77L21.13 9.77L21.13 9.77Q21.41 8.71 21.41 8.20L21.41 8.20L21.41 8.20Q21.41 7.70 21.17 7.43L21.17 7.43L21.17 7.43Q20.93 7.15 20.51 7.15L20.51 7.15L20.51 7.15Q20.09 7.15 19.84 7.34L19.84 7.34L19.84 7.34Q19.60 7.52 19.54 7.71L19.54 7.71L19.50 7.90L19.50 7.90Q19.49 8.16 19.49 9.59L19.49 9.59L19.49 9.59Q19.49 11.02 19.56 11.45L19.56 11.45L19.56 11.45Q19.63 11.87 19.63 11.93L19.63 11.93L19.63 11.93Q19.63 12.33 19.08 12.65L19.08 12.65L19.08 12.65Q18.54 12.96 18.00 12.96L18.00 12.96L18.00 12.96Q17.81 12.96 17.81 12.74L17.81 12.74L17.84 12.47L17.84 12.47Q18.14 10.12 18.14 7.38L18.14 7.38L18.14 7.38Q18.14 6.31 18.06 5.22L18.06 5.22L18.05 4.91L18.05 4.91Q18.02 4.52 17.88 4.24L17.88 4.24L17.88 4.24Q17.75 3.96 17.64 3.88L17.64 3.88L17.51 3.81L17.51 3.81Q17.42 3.75 17.42 3.68L17.42 3.68L17.42 3.68Q17.42 3.49 18.07 3.20L18.07 3.20L18.07 3.20Q18.73 2.91 19.09 2.91L19.09 2.91L19.09 2.91Q19.45 2.91 19.47 3.07L19.47 3.07L19.47 3.07Q19.53 3.78 19.53 5.15ZM26.35 7.22L26.35 7.22L26.28 4.58L26.28 4.58Q26.28 3.95 26.14 3.58L26.14 3.58L26.14 3.58Q26.00 3.22 26.00 3.19L26.00 3.19L26.00 3.19Q26.00 2.88 26.94 2.72L26.94 2.72L26.94 2.72Q27.89 2.55 28.38 2.55L28.38 2.55L28.38 2.55Q28.88 2.55 28.92 2.79L28.92 2.79L28.92 2.79Q29.81 6.72 30.41 8.25L30.41 8.25L30.41 8.25Q30.48 8.41 30.55 8.41L30.55 8.41L30.55 8.41Q30.63 8.41 30.69 8.29L30.69 8.29L30.69 8.29Q31.63 5.64 32.34 3.05L32.34 3.05L32.34 3.05Q32.40 2.88 32.62 2.79L32.62 2.79L32.62 2.79Q32.84 2.70 33.40 2.62L33.40 2.62L33.40 2.62Q33.95 2.53 34.50 2.53L34.50 2.53L34.50 2.53Q35.04 2.53 35.04 2.76L35.04 2.76L35.04 2.76Q35.04 2.77 35 2.97L35 2.97L35 2.97Q34.96 3.18 34.92 3.47L34.92 3.47L34.92 3.47Q34.87 3.77 34.82 4.19L34.82 4.19L34.82 4.19Q34.69 5.15 34.66 6.40L34.66 6.40L34.66 6.40Q34.62 7.66 34.62 8.92L34.62 8.92L34.65 10.39L34.65 10.39Q34.65 11.40 34.78 11.82L34.78 11.82L34.78 11.82Q34.92 12.25 34.92 12.31L34.92 12.31L34.92 12.31Q34.92 12.38 34.82 12.46L34.82 12.46L34.82 12.46Q34.38 12.81 33.50 12.81L33.50 12.81L33.50 12.81Q32.94 12.81 32.87 12.43L32.87 12.43L32.87 12.43Q32.83 12.24 32.83 11.81L32.83 11.81L32.83 11.81Q32.83 11.38 32.91 9.18L32.91 9.18L32.91 9.18Q33.00 6.99 33.00 5.98L33.00 5.98L33.00 5.98Q33.00 4.98 32.89 4.98L32.89 4.98L32.89 4.98Q32.87 4.98 32.87 4.99L32.87 4.99L32.87 4.99Q32.87 5.00 32.83 5.01L32.83 5.01L32.83 5.01Q32.79 5.03 32.61 5.45L32.61 5.45L32.61 5.45Q32.44 5.87 31.92 7.52L31.92 7.52L31.92 7.52Q31.40 9.17 30.98 10.61L30.98 10.61L30.98 10.61Q30.56 12.04 30.52 12.15L30.52 12.15L30.52 12.15Q30.37 12.53 29.93 12.53L29.93 12.53L29.93 12.53Q29.72 12.53 29.60 12.38L29.60 12.38L29.60 12.38Q29.15 10.30 28 6.45L28 6.45L27.61 5.18L27.61 5.18Q27.58 5.11 27.55 5.11L27.55 5.11L27.55 5.11Q27.48 5.11 27.45 5.21L27.45 5.21L27.45 5.21Q27.40 6.12 27.40 8.79L27.40 8.79L27.40 8.79Q27.40 11.45 27.59 12.15L27.59 12.15L27.59 12.15Q27.61 12.18 27.61 12.24L27.61 12.24L27.61 12.24Q27.61 12.53 27.15 12.66L27.15 12.66L27.15 12.66Q26.68 12.80 26.31 12.80L26.31 12.80L26.31 12.80Q25.94 12.80 25.94 12.63L25.94 12.63L25.94 12.63Q25.94 12.61 26.01 12.40L26.01 12.40L26.01 12.40Q26.22 11.69 26.29 10.33L26.29 10.33L26.29 10.33Q26.35 8.97 26.35 7.22ZM37.11 7.39L37.11 7.39L37.11 7.39Q36.75 7.41 36.59 7.41L36.59 7.41L36.59 7.41Q36.43 7.42 36.43 7.34L36.43 7.34L36.43 7.34Q36.43 7.25 36.51 7.17L36.51 7.17L36.51 7.17Q37.41 6.34 39.54 6.34L39.54 6.34L39.54 6.34Q40.26 6.34 40.68 6.47L40.68 6.47L40.82 6.51L40.82 6.51Q40.99 6.58 40.99 6.66L40.99 6.66L40.99 6.66Q40.99 6.73 40.89 6.78L40.89 6.78L40.89 6.78Q40.52 6.89 40.17 7.13L40.17 7.13L40.17 7.13Q39.82 7.38 39.82 7.48L39.82 7.48L39.90 7.57L39.90 7.57Q40.35 7.83 40.59 8.37L40.59 8.37L40.59 8.37Q40.84 8.92 40.87 9.34L40.87 9.34L40.89 9.77L40.89 9.77Q40.89 11.16 40.12 12.05L40.12 12.05L40.12 12.05Q39.35 12.95 38.02 12.95L38.02 12.95L38.02 12.95Q37.35 12.95 36.86 12.71L36.86 12.71L36.86 12.71Q36.37 12.47 36.14 12.17L36.14 12.17L36.14 12.17Q35.91 11.87 35.77 11.49L35.77 11.49L35.77 11.49Q35.60 10.98 35.60 10.42L35.60 10.42L35.60 10.42Q35.60 9.87 35.79 9.31L35.79 9.31L35.79 9.31Q35.98 8.75 36.23 8.48L36.23 8.48L36.23 8.48Q36.47 8.22 36.78 8.05L36.78 8.05L36.78 8.05Q37.17 7.84 37.41 7.84L37.41 7.84L37.41 7.84Q37.65 7.84 37.65 7.94L37.65 7.94L37.56 8.08L37.56 8.08Q37.25 8.44 37.12 9.03L37.12 9.03L37.12 9.03Q36.99 9.62 36.99 10.07L36.99 10.07L36.99 10.07Q36.99 10.53 37.10 10.98L37.10 10.98L37.10 10.98Q37.21 11.42 37.35 11.64L37.35 11.64L37.35 11.64Q37.49 11.86 37.67 11.97L37.67 11.97L37.67 11.97Q37.94 12.14 38.23 12.14L38.23 12.14L38.23 12.14Q38.53 12.14 38.81 11.91L38.81 11.91L38.81 11.91Q39.09 11.68 39.21 11.30L39.21 11.30L39.21 11.30Q39.47 10.60 39.47 9.86L39.47 9.86L39.47 9.86Q39.47 8.68 38.87 8.04L38.87 8.04L38.87 8.04Q38.28 7.39 37.11 7.39ZM42.99 7.39L42.99 7.39L42.99 7.39Q42.63 7.41 42.47 7.41L42.47 7.41L42.47 7.41Q42.31 7.42 42.31 7.34L42.31 7.34L42.31 7.34Q42.31 7.25 42.39 7.17L42.39 7.17L42.39 7.17Q43.29 6.34 45.42 6.34L45.42 6.34L45.42 6.34Q46.14 6.34 46.56 6.47L46.56 6.47L46.70 6.51L46.70 6.51Q46.87 6.58 46.87 6.66L46.87 6.66L46.87 6.66Q46.87 6.73 46.77 6.78L46.77 6.78L46.77 6.78Q46.40 6.89 46.05 7.13L46.05 7.13L46.05 7.13Q45.70 7.38 45.70 7.48L45.70 7.48L45.78 7.57L45.78 7.57Q46.23 7.83 46.47 8.37L46.47 8.37L46.47 8.37Q46.72 8.92 46.75 9.34L46.75 9.34L46.77 9.77L46.77 9.77Q46.77 11.16 46.00 12.05L46.00 12.05L46.00 12.05Q45.23 12.95 43.90 12.95L43.90 12.95L43.90 12.95Q43.23 12.95 42.74 12.71L42.74 12.71L42.74 12.71Q42.25 12.47 42.02 12.17L42.02 12.17L42.02 12.17Q41.79 11.87 41.65 11.49L41.65 11.49L41.65 11.49Q41.48 10.98 41.48 10.42L41.48 10.42L41.48 10.42Q41.48 9.87 41.67 9.31L41.67 9.31L41.67 9.31Q41.86 8.75 42.11 8.48L42.11 8.48L42.11 8.48Q42.35 8.22 42.66 8.05L42.66 8.05L42.66 8.05Q43.05 7.84 43.29 7.84L43.29 7.84L43.29 7.84Q43.53 7.84 43.53 7.94L43.53 7.94L43.44 8.08L43.44 8.08Q43.13 8.44 43.00 9.03L43.00 9.03L43.00 9.03Q42.87 9.62 42.87 10.07L42.87 10.07L42.87 10.07Q42.87 10.53 42.98 10.98L42.98 10.98L42.98 10.98Q43.09 11.42 43.23 11.64L43.23 11.64L43.23 11.64Q43.37 11.86 43.55 11.97L43.55 11.97L43.55 11.97Q43.82 12.14 44.11 12.14L44.11 12.14L44.11 12.14Q44.41 12.14 44.69 11.91L44.69 11.91L44.69 11.91Q44.97 11.68 45.09 11.30L45.09 11.30L45.09 11.30Q45.35 10.60 45.35 9.86L45.35 9.86L45.35 9.86Q45.35 8.68 44.75 8.04L44.75 8.04L44.75 8.04Q44.16 7.39 42.99 7.39ZM51.67 10.75L51.67 10.75L51.67 10.75Q51.67 11.35 51.44 11.80L51.44 11.80L51.44 11.80Q51.21 12.25 50.92 12.46L50.92 12.46L50.92 12.46Q50.62 12.67 50.22 12.80L50.22 12.80L50.22 12.80Q49.69 12.96 49.25 12.96L49.25 12.96L49.25 12.96Q48.34 12.96 47.74 12.61L47.74 12.61L47.74 12.61Q47.14 12.25 47.14 11.47L47.14 11.47L47.14 11.47Q47.14 11.00 47.39 10.71L47.39 10.71L47.39 10.71Q47.78 10.28 48.33 10.28L48.33 10.28L48.33 10.28Q48.50 10.28 48.50 10.43L48.50 10.43L48.50 10.43Q48.50 10.44 48.43 10.65L48.43 10.65L48.43 10.65Q48.37 10.85 48.37 11.16L48.37 11.16L48.37 11.16Q48.37 11.47 48.62 11.70L48.62 11.70L48.62 11.70Q48.86 11.94 49.21 11.94L49.21 11.94L49.21 11.94Q49.56 11.94 49.77 11.82L49.77 11.82L49.77 11.82Q49.98 11.70 50.06 11.52L50.06 11.52L50.06 11.52Q50.19 11.27 50.19 11.05L50.19 11.05L50.19 11.05Q50.19 10.64 49.78 10.35L49.78 10.35L49.78 10.35Q49.38 10.05 48.89 9.88L48.89 9.88L48.89 9.88Q48.40 9.72 47.99 9.32L47.99 9.32L47.99 9.32Q47.59 8.93 47.59 8.34L47.59 8.34L47.59 8.34Q47.59 7.34 48.22 6.83L48.22 6.83L48.22 6.83Q48.86 6.33 49.95 6.33L49.95 6.33L49.95 6.33Q50.43 6.33 50.95 6.46L50.95 6.46L50.95 6.46Q51.48 6.59 51.48 6.91L51.48 6.91L51.48 6.91Q51.48 7.22 51.37 7.49L51.37 7.49L51.37 7.49Q51.27 7.76 51.11 7.76L51.11 7.76L51.11 7.76Q51.03 7.76 51.00 7.69L51.00 7.69L51.00 7.69Q50.97 7.63 50.90 7.55L50.90 7.55L50.90 7.55Q50.83 7.46 50.57 7.33L50.57 7.33L50.57 7.33Q50.30 7.20 50.11 7.20L50.11 7.20L50.11 7.20Q49.92 7.20 49.86 7.20L49.86 7.20L49.86 7.20Q49.80 7.21 49.64 7.25L49.64 7.25L49.64 7.25Q49.49 7.28 49.36 7.35L49.36 7.35L49.36 7.35Q49.04 7.53 49.04 7.88L49.04 7.88L49.04 7.88Q49.04 8.11 49.14 8.21L49.14 8.21L49.14 8.21Q49.24 8.32 49.29 8.37L49.29 8.37L49.29 8.37Q49.35 8.43 49.49 8.50L49.49 8.50L49.49 8.50Q49.63 8.58 49.69 8.61L49.69 8.61L49.69 8.61Q49.74 8.64 49.94 8.73L49.94 8.73L49.94 8.73Q50.13 8.82 50.19 8.85L50.19 8.85L50.19 8.85Q51.67 9.55 51.67 10.75ZM53.56 9.11L53.56 9.11L53.58 9.46L53.58 9.46Q53.58 9.55 53.69 9.55L53.69 9.55L53.69 9.55Q54.14 9.51 54.47 9.32L54.47 9.32L54.47 9.32Q54.81 9.13 54.98 8.89L54.98 8.89L54.98 8.89Q55.31 8.37 55.34 7.99L55.34 7.99L55.36 7.83L55.36 7.83Q55.36 7.07 54.75 7.07L54.75 7.07L54.75 7.07Q54.31 7.07 54.03 7.46L54.03 7.46L54.03 7.46Q53.56 8.08 53.56 9.11ZM56.62 10.98L56.62 10.98L56.62 10.98Q56.62 11.51 56.40 11.91L56.40 11.91L56.40 11.91Q56.18 12.31 55.91 12.49L55.91 12.49L55.91 12.49Q55.64 12.68 55.27 12.80L55.27 12.80L55.27 12.80Q54.81 12.94 54.39 12.94L54.39 12.94L54.39 12.94Q53.21 12.94 52.65 12.05L52.65 12.05L52.65 12.05Q52.09 11.17 52.09 9.81L52.09 9.81L52.09 9.81Q52.09 8.44 52.79 7.38L52.79 7.38L52.79 7.38Q53.48 6.31 54.87 6.31L54.87 6.31L54.87 6.31Q56.13 6.31 56.57 7.20L56.57 7.20L56.57 7.20Q56.76 7.53 56.76 7.83L56.76 7.83L56.76 7.83Q56.76 8.13 56.73 8.31L56.73 8.31L56.73 8.31Q56.70 8.48 56.53 8.83L56.53 8.83L56.53 8.83Q56.36 9.18 56.08 9.46L56.08 9.46L56.08 9.46Q55.80 9.74 55.20 10.00L55.20 10.00L55.20 10.00Q54.60 10.25 53.79 10.33L53.79 10.33L53.79 10.33Q53.68 10.33 53.68 10.43L53.68 10.43L53.68 10.43Q53.68 10.56 53.77 10.80L53.77 10.80L53.77 10.80Q53.86 11.05 53.97 11.21L53.97 11.21L53.97 11.21Q54.28 11.61 54.88 11.61L54.88 11.61L54.88 11.61Q55.48 11.61 55.90 11.21L55.90 11.21L55.90 11.21Q56.13 11.00 56.27 10.70L56.27 10.70L56.27 10.70Q56.32 10.58 56.41 10.58L56.41 10.58L56.41 10.58Q56.50 10.58 56.56 10.74L56.56 10.74L56.56 10.74Q56.62 10.89 56.62 10.98ZM60.49 10.15L60.49 10.15L60.58 7.67L59.64 7.67L59.64 7.67Q59.53 7.67 59.53 7.59L59.53 7.59L59.53 7.59Q59.53 7.34 59.77 7.01L59.77 7.01L59.77 7.01Q60.00 6.68 60.28 6.68L60.28 6.68L60.58 6.68L60.58 6.68Q60.55 5.59 60.52 5.11L60.52 5.11L60.52 5.11Q60.47 4.26 60.24 3.79L60.24 3.79L60.17 3.65L60.17 3.65Q60.12 3.58 60.12 3.49L60.12 3.49L60.12 3.49Q60.12 3.39 60.27 3.32L60.27 3.32L60.27 3.32Q60.42 3.25 60.73 3.15L60.73 3.15L60.73 3.15Q61.03 3.05 62.01 2.89L62.01 2.89L62.01 2.89Q62.99 2.73 64.14 2.73L64.14 2.73L64.14 2.73Q65.30 2.73 65.40 2.90L65.40 2.90L65.40 2.90Q65.51 3.07 65.51 3.42L65.51 3.42L65.51 3.42Q65.51 3.78 65.41 3.78L65.41 3.78L65.41 3.78Q65.39 3.78 65.31 3.77L65.31 3.77L65.31 3.77Q65.09 3.71 64.62 3.71L64.62 3.71L64.62 3.71Q64.16 3.71 63.63 3.79L63.63 3.79L63.63 3.79Q63.10 3.88 62.82 3.96L62.82 3.96L62.55 4.06L62.55 4.06Q62.44 4.09 62.38 4.26L62.38 4.26L62.38 4.26Q62.27 5.08 62.27 6.68L62.27 6.68L64.54 6.68L64.54 6.68Q64.67 6.68 64.67 6.76L64.67 6.76L64.67 6.76Q64.67 7.01 64.44 7.35L64.44 7.35L64.44 7.35Q64.22 7.69 63.94 7.69L63.94 7.69L62.27 7.67L62.37 11.87L62.37 11.87Q62.37 12.18 62.27 12.32L62.27 12.32L62.27 12.32Q62.01 12.67 61.37 12.85L61.37 12.85L61.37 12.85Q60.73 13.02 60.31 13.02L60.31 13.02L60.31 13.02Q60.20 13.02 60.20 12.88L60.20 12.88L60.20 12.88Q60.20 12.81 60.21 12.77L60.21 12.77L60.21 12.77Q60.38 12.53 60.49 10.15ZM69.72 8.47L69.72 8.47L69.69 10.26L69.69 10.26Q69.69 12.12 70.10 12.50L70.10 12.50L70.10 12.50Q70.15 12.56 70.15 12.63L70.15 12.63L70.15 12.63Q70.15 12.84 69.25 12.84L69.25 12.84L69.25 12.84Q68.35 12.84 68.29 12.31L68.29 12.31L68.29 12.31Q68.28 12.18 68.28 11.79L68.28 11.79L68.33 9.55L68.33 9.55Q68.33 9.45 68.22 9.45L68.22 9.45L68.22 9.45Q67.55 9.45 66.96 9.83L66.96 9.83L66.96 9.83Q66.37 10.21 66.37 10.79L66.37 10.79L66.37 10.79Q66.37 11.10 66.54 11.31L66.54 11.31L66.54 11.31Q66.71 11.52 66.96 11.52L66.96 11.52L66.96 11.52Q67.20 11.52 67.36 11.42L67.36 11.42L67.36 11.42Q67.52 11.33 67.55 11.31L67.55 11.31L67.55 11.31Q67.79 11.34 67.79 11.81L67.79 11.81L67.79 11.81Q67.79 12.28 67.35 12.56L67.35 12.56L67.35 12.56Q66.92 12.85 66.44 12.85L66.44 12.85L66.44 12.85Q65.97 12.85 65.63 12.68L65.63 12.68L65.63 12.68Q65.28 12.52 65.13 12.31L65.13 12.31L65.13 12.31Q64.97 12.10 64.88 11.83L64.88 11.83L64.88 11.83Q64.78 11.51 64.78 11.27L64.78 11.27L64.78 11.27Q64.78 10.29 65.39 9.70L65.39 9.70L65.39 9.70Q66.01 9.11 66.98 8.86L66.98 8.86L66.98 8.86Q68.25 8.61 68.31 8.40L68.31 8.40L68.31 8.40Q68.35 8.25 68.35 7.88L68.35 7.88L68.35 7.88Q68.35 7.14 67.59 7.14L67.59 7.14L67.59 7.14Q67.27 7.14 67.02 7.34L67.02 7.34L67.02 7.34Q66.77 7.55 66.77 7.85L66.77 7.85L66.85 8.19L66.85 8.19Q66.82 8.43 66.35 8.47L66.35 8.47L66.19 8.48L66.19 8.48Q65.77 8.48 65.53 8.27L65.53 8.27L65.53 8.27Q65.28 8.06 65.28 7.71L65.28 7.71L65.28 7.71Q65.28 7.49 65.43 7.22L65.43 7.22L65.43 7.22Q65.58 6.94 65.80 6.78L65.80 6.78L65.80 6.78Q66.02 6.61 66.49 6.47L66.49 6.47L66.49 6.47Q66.96 6.34 67.40 6.34L67.40 6.34L67.40 6.34Q67.83 6.34 68.07 6.37L68.07 6.37L68.07 6.37Q68.31 6.40 68.72 6.50L68.72 6.50L68.72 6.50Q69.13 6.61 69.41 6.90L69.41 6.90L69.41 6.90Q69.68 7.20 69.70 7.52L69.70 7.52L69.70 7.52Q69.72 7.85 69.72 8.47ZM74.91 7.85L74.84 8.92L74.90 9.41L74.90 9.41Q74.90 9.67 74.40 9.67L74.40 9.67L74.40 9.67Q73.37 9.67 73.37 8.90L73.37 8.90L73.37 8.90Q73.37 8.72 73.47 8.40L73.47 8.40L73.47 8.40Q73.57 8.08 73.57 7.84L73.57 7.84L73.57 7.84Q73.57 7.60 73.43 7.43L73.43 7.43L73.43 7.43Q73.29 7.25 73.02 7.25L73.02 7.25L73.02 7.25Q72.76 7.25 72.57 7.44L72.57 7.44L72.57 7.44Q72.38 7.63 72.34 7.83L72.34 7.83L72.28 8.02L72.28 8.02Q72.20 8.46 72.20 9.47L72.20 9.47L72.20 9.47Q72.20 10.49 72.23 11.07L72.23 11.07L72.23 11.07Q72.25 11.65 72.28 11.87L72.28 11.87L72.28 11.87Q72.31 12.08 72.31 12.12L72.31 12.12L72.31 12.12Q72.31 12.47 71.88 12.69L71.88 12.69L71.88 12.69Q71.44 12.91 71.01 12.91L71.01 12.91L71.01 12.91Q70.57 12.91 70.57 12.73L70.57 12.73L70.64 12.29L70.64 12.29Q70.84 11.07 70.84 9.11L70.84 9.11L70.84 9.11Q70.84 7.15 70.70 6.45L70.70 6.45L70.70 6.45Q70.70 6.29 70.99 6.29L70.99 6.29L70.99 6.29Q71.75 6.29 72.00 6.80L72.00 6.80L72.00 6.80Q72.02 6.86 72.05 6.86L72.05 6.86L72.05 6.86Q72.09 6.86 72.24 6.73L72.24 6.73L72.24 6.73Q72.70 6.36 73.33 6.36L73.33 6.36L73.33 6.36Q73.72 6.36 74.12 6.51L74.12 6.51L74.12 6.51Q74.91 6.83 74.91 7.85L74.91 7.85ZM78.71 12.75L78.71 12.75L78.71 12.75Q78.90 11.77 78.90 10.00L78.90 10.00L78.90 10.00Q78.90 8.23 78.89 7.91L78.89 7.91L78.89 7.91Q78.88 7.59 78.69 7.39L78.69 7.39L78.69 7.39Q78.51 7.20 78.38 7.17L78.38 7.17L78.38 7.17Q78.25 7.14 78.01 7.14L78.01 7.14L78.01 7.14Q77.77 7.14 77.55 7.36L77.55 7.36L77.55 7.36Q77.32 7.57 77.28 7.80L77.28 7.80L77.22 8.02L77.22 8.02Q77.18 8.44 77.18 9.88L77.18 9.88L77.18 9.88Q77.18 11.33 77.25 11.70L77.25 11.70L77.25 11.70Q77.31 12.07 77.31 12.19L77.31 12.19L77.31 12.19Q77.31 12.32 77.20 12.45L77.20 12.45L77.20 12.45Q76.72 12.95 75.85 12.95L75.85 12.95L75.85 12.95Q75.54 12.95 75.54 12.77L75.54 12.77L75.54 12.77Q75.82 11.09 75.82 8.48L75.82 8.48L75.82 8.48Q75.82 7.52 75.78 7.18L75.78 7.18L75.73 6.73L75.73 6.73Q75.71 6.58 75.67 6.40L75.67 6.40L75.67 6.40Q75.67 6.23 76.10 6.23L76.10 6.23L76.10 6.23Q76.75 6.23 76.96 6.71L76.96 6.71L76.96 6.71Q76.97 6.76 77.01 6.76L77.01 6.76L77.01 6.76Q77.06 6.76 77.21 6.65L77.21 6.65L77.21 6.65Q77.67 6.29 78.46 6.29L78.46 6.29L78.46 6.29Q78.90 6.29 79.34 6.45L79.34 6.45L79.34 6.45Q79.77 6.62 79.94 6.90L79.94 6.90L79.94 6.90Q79.95 6.93 79.98 6.93L79.98 6.93L79.98 6.93Q80.01 6.93 80.07 6.87L80.07 6.87L80.07 6.87Q80.65 6.29 81.59 6.29L81.59 6.29L81.59 6.29Q82.84 6.29 83.30 7.18L83.30 7.18L83.30 7.18Q83.47 7.53 83.47 8.06L83.47 8.06L83.47 8.06Q83.47 8.60 83.38 9.58L83.38 9.58L83.38 9.58Q83.30 10.56 83.30 11.07L83.30 11.07L83.30 11.07Q83.30 11.59 83.41 12.01L83.41 12.01L83.41 12.01Q83.51 12.43 83.62 12.61L83.62 12.61L83.62 12.61Q83.72 12.80 83.72 12.82L83.72 12.82L83.72 12.82Q83.72 13.01 83.33 13.01L83.33 13.01L83.33 13.01Q82.36 13.01 81.98 12.61L81.98 12.61L81.98 12.61Q81.61 12.22 81.61 11.59L81.61 11.59L81.61 11.59Q81.61 10.95 81.87 9.86L81.87 9.86L81.87 9.86Q82.12 8.78 82.12 8.23L82.12 8.23L82.12 8.23Q82.12 7.13 81.23 7.13L81.23 7.13L81.23 7.13Q80.85 7.13 80.63 7.35L80.63 7.35L80.63 7.35Q80.40 7.57 80.36 7.80L80.36 7.80L80.33 8.02L80.33 8.02Q80.28 8.67 80.28 9.58L80.28 9.58L80.28 9.58Q80.28 10.49 80.30 11.00L80.30 11.00L80.30 11.00Q80.33 11.51 80.36 11.79L80.36 11.79L80.36 11.79Q80.39 12.08 80.39 12.14L80.39 12.14L80.39 12.14Q80.39 12.53 79.90 12.74L79.90 12.74L79.90 12.74Q79.41 12.95 78.95 12.95L78.95 12.95L78.95 12.95Q78.71 12.95 78.71 12.75ZM88.44 10.75L88.44 10.75L88.44 10.75Q88.44 11.35 88.21 11.80L88.21 11.80L88.21 11.80Q87.98 12.25 87.68 12.46L87.68 12.46L87.68 12.46Q87.39 12.67 86.98 12.80L86.98 12.80L86.98 12.80Q86.45 12.96 86.02 12.96L86.02 12.96L86.02 12.96Q85.11 12.96 84.50 12.61L84.50 12.61L84.50 12.61Q83.90 12.25 83.90 11.47L83.90 11.47L83.90 11.47Q83.90 11.00 84.15 10.71L84.15 10.71L84.15 10.71Q84.55 10.28 85.09 10.28L85.09 10.28L85.09 10.28Q85.26 10.28 85.26 10.43L85.26 10.43L85.26 10.43Q85.26 10.44 85.20 10.65L85.20 10.65L85.20 10.65Q85.13 10.85 85.13 11.16L85.13 11.16L85.13 11.16Q85.13 11.47 85.38 11.70L85.38 11.70L85.38 11.70Q85.62 11.94 85.97 11.94L85.97 11.94L85.97 11.94Q86.32 11.94 86.53 11.82L86.53 11.82L86.53 11.82Q86.74 11.70 86.83 11.52L86.83 11.52L86.83 11.52Q86.95 11.27 86.95 11.05L86.95 11.05L86.95 11.05Q86.95 10.64 86.55 10.35L86.55 10.35L86.55 10.35Q86.14 10.05 85.65 9.88L85.65 9.88L85.65 9.88Q85.16 9.72 84.76 9.32L84.76 9.32L84.76 9.32Q84.35 8.93 84.35 8.34L84.35 8.34L84.35 8.34Q84.35 7.34 84.99 6.83L84.99 6.83L84.99 6.83Q85.62 6.33 86.72 6.33L86.72 6.33L86.72 6.33Q87.19 6.33 87.72 6.46L87.72 6.46L87.72 6.46Q88.24 6.59 88.24 6.91L88.24 6.91L88.24 6.91Q88.24 7.22 88.14 7.49L88.14 7.49L88.14 7.49Q88.03 7.76 87.88 7.76L87.88 7.76L87.88 7.76Q87.79 7.76 87.77 7.69L87.77 7.69L87.77 7.69Q87.74 7.63 87.67 7.55L87.67 7.55L87.67 7.55Q87.60 7.46 87.33 7.33L87.33 7.33L87.33 7.33Q87.07 7.20 86.88 7.20L86.88 7.20L86.88 7.20Q86.69 7.20 86.63 7.20L86.63 7.20L86.63 7.20Q86.56 7.21 86.41 7.25L86.41 7.25L86.41 7.25Q86.25 7.28 86.13 7.35L86.13 7.35L86.13 7.35Q85.81 7.53 85.81 7.88L85.81 7.88L85.81 7.88Q85.81 8.11 85.90 8.21L85.90 8.21L85.90 8.21Q86.00 8.32 86.06 8.37L86.06 8.37L86.06 8.37Q86.11 8.43 86.25 8.50L86.25 8.50L86.25 8.50Q86.39 8.58 86.45 8.61L86.45 8.61L86.45 8.61Q86.51 8.64 86.70 8.73L86.70 8.73L86.70 8.73Q86.90 8.82 86.95 8.85L86.95 8.85L86.95 8.85Q88.44 9.55 88.44 10.75Z"></path></g><!----><!----></svg>